<svg width="60" height="59" viewBox="0 0 60 59" xmlns="http://www.w3.org/2000/svg" xmlns:xlink="http://www.w3.org/1999/xlink"><title>Jobsity Logo</title><defs><path id="path-1" d="M0 .083h59.914V58.69H0z"/><path id="path-3" d="M0 58.783h59.914V.177H0z"/><path id="path-5" d="M.18 26.675H13.67V13.483H.18z"/></defs><g id="Page-1" fill="none" fill-rule="evenodd"><g id="Jobsity-Logo-Dark"><g id="Jobsity-Logo"><g id="Group-3" transform="translate(0 .094)"><mask id="mask-2" fill="#fff"><use xlink:href="#path-1"/></mask><path d="M29.958 58.69C13.413 58.69 0 45.57 0 29.386S13.413.083 29.958.083c16.544 0 29.956 13.12 29.956 29.304 0 16.184-13.412 29.302-29.956 29.302z" id="Fill-1" fill="#231F20" mask="url(#mask-2)"/></g><path d="M15.568 37.4c0 7.286 6.04 13.192 13.489 13.192V37.4H15.568z" id="Fill-4" fill="#17B5E9"/><path d="M15.681 37.509c.06 7.127 5.977 12.914 13.264 12.973V37.509H15.68zM29.17 50.702h-.112c-7.5 0-13.6-5.968-13.6-13.303v-.11h13.712v13.413z" id="Fill-6" fill="#17B5E9"/><mask id="mask-4" fill="#fff"><use xlink:href="#path-3"/></mask><g transform="translate(28.876 10.724)" id="Group-2" mask="url(#mask-4)"><g id="Fill-8"><use fill="#FCF8F3" xlink:href="#path-5"/><path stroke="#FCF8F3" stroke-width=".5" d="M.43 26.425H13.42V13.733H.43v12.692z"/></g><path d="M.292 26.785v12.973c7.287-.059 13.204-5.845 13.264-12.973H.292zM.18 39.978H.07V26.566H13.78v.11c0 7.334-6.101 13.302-13.6 13.302z" id="Fill-12" fill="#FCF8F3"/><path d="M13.668 26.675c0 7.287-6.039 13.193-13.488 13.193V26.675h13.488z" id="Fill-11" stroke="#FCF8F3" stroke-width=".2" fill="#FCF8F3"/><path id="Fill-13" fill="#FCF8F3" d="M.18 13.483H13.67V.29H.18z"/><path id="Fill-13-Copy" fill="#FCF8F3" d="M.18 26.785H13.67V.291H.18z"/><path d="M.292 26.566h13.265V13.592H.292v12.974zm-.224.219h13.713V13.373H.068v13.412z" id="Fill-10" stroke="#FCF8F3" stroke-width=".2" fill="#FCF8F3"/><path d="M.292 13.373h13.265V.4H.292v12.973zm-.224.22h13.713V.18H.068v13.411z" id="Fill-14" stroke="#FCF8F3" stroke-width=".2" fill="#FCF8F3"/></g></g></g></g></svg>